<svg xmlns="http://www.w3.org/2000/svg" viewBox="0 0 1024 1024" role="img" aria-labelledby="title desc">
<title id="title">Red-haired character profile icon</title>
<desc id="desc">Original vector avatar with red spiky hair, unimpressed expression, black streetwear, backpack and sneakers.</desc>
<defs>
  <linearGradient id="bg" x1="0" y1="0" x2="1" y2="1">
    <stop offset="0" stop-color="#35070b"/><stop offset=".55" stop-color="#8d1018"/><stop offset="1" stop-color="#250407"/>
  </linearGradient>
  <radialGradient id="halo">
    <stop offset="0" stop-color="#dc2630" stop-opacity=".72"/><stop offset=".68" stop-color="#a5111b" stop-opacity=".18"/><stop offset="1" stop-color="#210306" stop-opacity="0"/>
  </radialGradient>
  <linearGradient id="face" x1=".18" y1=".05" x2=".8" y2=".9">
    <stop stop-color="#fff8f1"/><stop offset=".7" stop-color="#e9d5cb"/><stop offset="1" stop-color="#c7a79c"/>
  </linearGradient>
  <linearGradient id="hair" x1=".2" y1="0" x2=".75" y2="1">
    <stop stop-color="#ff2934"/><stop offset=".48" stop-color="#ba0716"/><stop offset="1" stop-color="#62040d"/>
  </linearGradient>
  <linearGradient id="jacket" x1="0" y1="0" x2="1" y2="1">
    <stop stop-color="#27272b"/><stop offset=".5" stop-color="#111114"/><stop offset="1" stop-color="#050506"/>
  </linearGradient>
  <linearGradient id="pants" x1=".2" y1="0" x2=".8" y2="1">
    <stop stop-color="#242429"/><stop offset="1" stop-color="#09090b"/>
  </linearGradient>
  <filter id="shadow" x="-30%" y="-30%" width="160%" height="180%">
    <feGaussianBlur stdDeviation="18"/>
  </filter>
  <filter id="soft" x="-20%" y="-20%" width="140%" height="140%">
    <feGaussianBlur stdDeviation="3"/>
  </filter>
</defs>

<!-- background -->
<rect width="1024" height="1024" rx="180" fill="url(#bg)"/>
<circle cx="520" cy="380" r="390" fill="url(#halo)"/>
<ellipse cx="515" cy="916" rx="270" ry="34" fill="#120204" opacity=".65" filter="url(#shadow)"/>

<!-- backpack -->
<path d="M321 420 Q264 458 274 612 L309 702 Q332 721 366 701 L385 469 Q370 425 321 420Z" fill="#09090c" stroke="#35343a" stroke-width="9"/>
<path d="M333 449 Q371 395 421 424" fill="none" stroke="#35343a" stroke-width="17" stroke-linecap="round"/>

<!-- legs -->
<path d="M426 681 Q402 769 405 894 L360 949 Q374 978 429 969 L482 917 L499 731Z" fill="url(#pants)"/>
<path d="M500 708 L548 712 Q581 788 594 902 L650 952 Q640 981 582 970 L526 921 Q493 815 500 708Z" fill="url(#pants)"/>

<!-- cargo pockets -->
<path d="M397 760 L457 748 L464 824 L399 831Z" fill="#17171b" stroke="#35353a" stroke-width="6"/>
<path d="M538 756 L588 765 L598 831 L548 825Z" fill="#17171b" stroke="#35353a" stroke-width="6"/>
<path d="M404 771 L455 762" stroke="#515158" stroke-width="5"/>
<path d="M545 772 L589 780" stroke="#515158" stroke-width="5"/>

<!-- shoes -->
<path d="M356 903 Q392 895 427 916 L459 953 Q466 978 437 990 L338 988 Q315 978 326 953Z" fill="#eee8df" stroke="#bdb6ad" stroke-width="7"/>
<path d="M554 911 Q588 899 616 918 L679 957 Q694 979 666 990 L555 988 Q533 979 538 955Z" fill="#eee8df" stroke="#bdb6ad" stroke-width="7"/>
<path d="M345 951 Q389 939 437 960" fill="none" stroke="#a69f97" stroke-width="6"/>
<path d="M556 954 Q607 944 659 969" fill="none" stroke="#a69f97" stroke-width="6"/>
<path d="M374 944 q25-17 48 0" fill="none" stroke="#555158" stroke-width="7"/>
<path d="M573 947 q26-17 49 0" fill="none" stroke="#555158" stroke-width="7"/>

<!-- torso hoodie -->
<path d="M363 431 Q410 385 503 390 Q598 394 652 459 L630 681 Q559 718 425 691 L354 623Z" fill="#0b0b0e"/>
<path d="M412 416 Q476 370 549 411 Q511 458 469 463 Q434 458 412 416Z" fill="#16161a"/>
<path d="M464 442 L458 545 M529 441 L536 545" stroke="#77747b" stroke-width="7" stroke-linecap="round"/>

<!-- jacket -->
<path d="M373 430 Q330 462 323 538 L340 682 Q382 700 431 681 L448 492Z" fill="url(#jacket)" stroke="#333238" stroke-width="6"/>
<path d="M552 435 Q626 440 662 502 L651 661 Q618 689 576 677 L544 489Z" fill="url(#jacket)" stroke="#333238" stroke-width="6"/>
<path d="M441 450 L471 493 L451 659" fill="none" stroke="#606067" stroke-width="7"/>
<path d="M552 452 L522 493 L548 661" fill="none" stroke="#606067" stroke-width="7"/>

<!-- hands in pockets -->
<path d="M358 618 Q378 603 398 622 Q402 648 378 665 Q349 658 358 618Z" fill="url(#face)"/>
<path d="M602 615 Q625 603 641 625 Q641 653 615 664 Q591 651 602 615Z" fill="url(#face)"/>

<!-- neck -->
<path d="M452 385 L547 385 L558 446 Q510 470 446 443Z" fill="#d5b8ae"/>

<!-- head -->
<path d="M317 239 Q329 125 480 102 Q633 83 705 183 Q750 245 717 343 Q689 427 593 461 Q480 502 379 442 Q297 393 296 304 Q296 266 317 239Z" fill="url(#face)" stroke="#b98f87" stroke-width="5"/>

<!-- ears -->
<ellipse cx="314" cy="317" rx="32" ry="48" fill="#d8b9af"/>
<ellipse cx="704" cy="306" rx="29" ry="45" fill="#d8b9af"/>

<!-- hair mass -->
<path d="M306 263
Q276 218 326 194 Q286 151 352 151 Q326 102 397 120
Q390 70 449 104 Q469 55 504 101 Q538 49 559 104
Q605 64 610 119 Q674 89 660 148 Q723 135 690 189
Q743 197 704 238 Q659 207 619 194 Q556 167 481 177
Q395 186 333 277Z" fill="url(#hair)"/>
<!-- individual spikes -->
<g fill="#d30a1c">
<path d="M333 196 L283 147 L363 166Z"/><path d="M383 143 L365 77 L424 130Z"/>
<path d="M441 118 L462 51 L486 125Z"/><path d="M508 111 L554 47 L551 132Z"/>
<path d="M578 127 L639 77 L616 151Z"/><path d="M635 151 L706 121 L666 187Z"/>
<path d="M677 190 L746 182 L695 226Z"/>
</g>

<!-- brows -->
<path d="M365 277 Q416 245 462 271" fill="none" stroke="#7d0a19" stroke-width="18" stroke-linecap="round"/>
<path d="M547 267 Q598 239 643 265" fill="none" stroke="#7d0a19" stroke-width="18" stroke-linecap="round"/>

<!-- eyes: deliberately unimpressed -->
<path d="M359 306 Q408 276 462 309 Q419 345 365 329Z" fill="#f9f5ef" stroke="#351016" stroke-width="7"/>
<ellipse cx="416" cy="316" rx="17" ry="22" fill="#3b1d17"/><ellipse cx="421" cy="310" rx="5" ry="6" fill="#fff"/>
<path d="M544 302 Q594 273 648 303 Q607 338 550 325Z" fill="#f9f5ef" stroke="#351016" stroke-width="7"/>
<ellipse cx="595" cy="312" rx="17" ry="22" fill="#3b1d17"/><ellipse cx="600" cy="306" rx="5" ry="6" fill="#fff"/>

<!-- nose -->
<path d="M506 292 Q484 341 499 360 Q516 374 538 353" fill="#c89f94" stroke="#9d756e" stroke-width="5"/>

<!-- expression -->
<path d="M461 393 Q504 380 552 393" fill="none" stroke="#86101a" stroke-width="10" stroke-linecap="round"/>
<path d="M475 394 Q509 401 540 394" fill="none" stroke="#b52630" stroke-width="4" opacity=".65"/>

<!-- subtle cheek shading -->
<ellipse cx="379" cy="369" rx="53" ry="25" fill="#a34b55" opacity=".08" filter="url(#soft)"/>
<ellipse cx="629" cy="362" rx="49" ry="24" fill="#a34b55" opacity=".08" filter="url(#soft)"/>

<!-- jacket details -->
<path d="M368 510 L417 525" stroke="#4a494f" stroke-width="6" stroke-linecap="round"/>
<path d="M591 523 L635 505" stroke="#4a494f" stroke-width="6" stroke-linecap="round"/>
<circle cx="453" cy="493" r="5" fill="#a9a7ad"/><circle cx="547" cy="493" r="5" fill="#a9a7ad"/>
</svg>